<svg width="11" height="11" viewBox="0 0 11 11" fill="none" xmlns="http://www.w3.org/2000/svg">
<path d="M1.64001 0.27L5.50001 4.13L9.34001 0.29C9.42483 0.199717 9.52701 0.127495 9.64042 0.0776622C9.75383 0.0278298 9.87614 0.00141434 10 0C10.2652 0 10.5196 0.105357 10.7071 0.292893C10.8947 0.48043 11 0.734784 11 1C11.0023 1.1226 10.9796 1.24439 10.9332 1.35788C10.8867 1.47138 10.8176 1.57419 10.73 1.66L6.84001 5.5L10.73 9.39C10.8948 9.55124 10.9915 9.76959 11 10C11 10.2652 10.8947 10.5196 10.7071 10.7071C10.5196 10.8946 10.2652 11 10 11C9.87256 11.0053 9.74541 10.984 9.62663 10.9375C9.50784 10.8911 9.40002 10.8204 9.31001 10.73L5.50001 6.87L1.65001 10.72C1.56552 10.8073 1.46457 10.8769 1.35301 10.925C1.24145 10.9731 1.12147 10.9986 1.00001 11C0.734794 11 0.48044 10.8946 0.292903 10.7071C0.105367 10.5196 1.01188e-05 10.2652 1.01188e-05 10C-0.00232138 9.8774 0.0204255 9.75561 0.0668551 9.64212C0.113285 9.52862 0.182417 9.42581 0.27001 9.34L4.16001 5.5L0.27001 1.61C0.105195 1.44876 0.00854974 1.23041 1.01188e-05 1C1.01188e-05 0.734784 0.105367 0.48043 0.292903 0.292893C0.48044 0.105357 0.734794 0 1.00001 0C1.24001 0.003 1.47001 0.1 1.64001 0.27Z" fill="#1C0BD9"/>
</svg>
