<svg width="22" height="22" viewBox="0 0 22 22" fill="none" xmlns="http://www.w3.org/2000/svg">
<path d="M11 17.1111C9.43148 17.1111 8.07767 16.5994 6.93856 15.576C5.79944 14.5526 5.1317 13.275 4.93533 11.7431L6.25656 12.1306C6.52056 13.2306 7.08807 14.1321 7.95911 14.8353C8.83015 15.5385 9.84378 15.8897 11 15.8889C12.3444 15.8889 13.4954 15.4102 14.4528 14.4528C15.4102 13.4954 15.8889 12.3444 15.8889 11C15.8889 9.83889 15.5336 8.82037 14.8231 7.94444C14.1126 7.06852 13.2151 6.49815 12.1306 6.23333L11.7187 4.93533C13.2513 5.13089 14.5334 5.79863 15.565 6.93856C16.5957 8.07767 17.1111 9.43148 17.1111 11C17.1111 12.6973 16.5171 14.1403 15.3291 15.3291C14.1403 16.5171 12.6973 17.1111 11 17.1111ZM11.0037 22C9.48322 22 8.05322 21.7111 6.71367 21.1334C5.37411 20.5557 4.20933 19.7723 3.21933 18.7831C2.22852 17.7931 1.44426 16.6287 0.866556 15.29C0.288852 13.9521 0 12.5221 0 11V10.6382C0 10.5176 0.0122222 10.397 0.0366666 10.2764L1.22222 10.6333V11C1.22222 13.7296 2.16944 16.0417 4.06389 17.9361C5.95833 19.8306 8.27037 20.7778 11 20.7778C13.7296 20.7778 16.0417 19.8306 17.9361 17.9361C19.8306 16.0417 20.7778 13.7296 20.7778 11C20.7778 8.27037 19.8306 5.95833 17.9361 4.06389C16.0417 2.16944 13.7296 1.22222 11 1.22222H10.6333L10.252 0.0366666C10.3767 0.0122222 10.5013 0 10.626 0H11C12.5221 0 13.9521 0.288444 15.29 0.865333C16.6287 1.44304 17.7931 2.22689 18.7831 3.21689C19.7731 4.20607 20.5566 5.36963 21.1334 6.70756C21.7111 8.04548 22 9.47507 22 10.9963C22 12.5168 21.7116 13.9468 21.1347 15.2863C20.557 16.6251 19.7731 17.7899 18.7831 18.7807C17.7939 19.7715 16.6304 20.5557 15.2924 21.1334C13.9545 21.7111 12.5249 22 11.0037 22ZM9.47956 10.7409L3.62022 4.85833L2.49089 8.27322L0 0L8.27444 2.49089L4.85833 3.62022L10.7409 9.47956L9.47956 10.7409Z" fill="#1205A3"/>
</svg>
