<svg width="18" height="20" viewBox="0 0 18 20" fill="none" xmlns="http://www.w3.org/2000/svg">
<path fill-rule="evenodd" clip-rule="evenodd" d="M0.816516 19.0878L9.25846 10.9631L12.2351 13.8268L2.19854 19.1951C1.81679 19.4003 1.34806 19.3957 0.971148 19.1858C0.971148 19.1905 0.816516 19.0878 0.816516 19.0878ZM8.40798 10.1422L0.357452 17.8892V2.39527L8.40798 10.1422ZM13.4384 6.9427L17.3718 9.04618C17.7584 9.2514 18 9.64318 18 10.0629C18 10.4827 17.7584 10.8745 17.3718 11.0797L13.332 13.2391L10.1138 10.1422C10.1089 10.1422 13.4384 6.9427 13.4384 6.9427ZM0.724703 1.11266C0.797187 1.04736 0.879335 0.98673 0.966316 0.935425C1.34323 0.725544 1.81196 0.72088 2.19371 0.926097L12.3414 6.35503L9.25846 9.32136L0.724703 1.11266Z" fill="white"/>
</svg>
