<svg width="35" height="25" viewBox="0 0 35 25" fill="none" xmlns="http://www.w3.org/2000/svg">
<path d="M14.3133 0.815986C17.7887 -0.240097 21.6204 0.46132 24.3833 2.67799C26.5778 4.43232 27.8477 6.93082 27.949 9.54965L27.9538 9.88532L28.0978 9.89007C31.7395 10.0595 34.6576 12.995 34.827 16.6509L34.8333 16.985C34.8333 20.7961 31.8487 23.9073 28.0963 24.0815L27.7637 24.0894H8.95692L8.60542 24.0767C3.95042 23.9026 0.186833 20.2783 0.00791666 15.7437L0 15.4017C0 11.0522 3.29333 7.46915 7.57467 6.82474L7.75517 6.7994L7.866 6.51282C8.91575 3.94782 11.1213 1.91165 13.9286 0.942653L14.3149 0.815986H14.3133Z" fill="#1205A3"/>
</svg>
