<svg width="21" height="21" viewBox="0 0 21 21" fill="none" xmlns="http://www.w3.org/2000/svg">
<g clip-path="url(#clip0_313_1397)">
<path d="M16.9167 11.3225C16.8399 11.3229 16.7638 11.3082 16.6927 11.2792C16.6216 11.2502 16.557 11.2074 16.5025 11.1533L10.5 5.15083L4.4975 11.1533C4.38591 11.2489 4.24236 11.2988 4.09555 11.2932C3.94874 11.2875 3.80948 11.2266 3.70559 11.1227C3.6017 11.0189 3.54084 10.8796 3.53517 10.7328C3.5295 10.586 3.57943 10.4424 3.675 10.3308L10.5 3.5L17.3308 10.3308C17.4111 10.4127 17.4655 10.5165 17.4871 10.6291C17.5087 10.7417 17.4967 10.8582 17.4525 10.964C17.4083 11.0698 17.3339 11.1602 17.2386 11.224C17.1433 11.2878 17.0313 11.322 16.9167 11.3225Z" fill="#5E5E5E"/>
<path d="M16.9167 17.7392C16.8399 17.7397 16.7638 17.725 16.6927 17.6959C16.6216 17.6669 16.557 17.6241 16.5025 17.5701L10.5 11.5676L4.4975 17.5701C4.38591 17.6656 4.24236 17.7156 4.09555 17.7099C3.94874 17.7042 3.80948 17.6434 3.70559 17.5395C3.6017 17.4356 3.54084 17.2963 3.53517 17.1495C3.5295 17.0027 3.57943 16.8592 3.675 16.7476L10.5 9.91675L17.3308 16.7476C17.4111 16.8295 17.4655 16.9332 17.4871 17.0458C17.5087 17.1584 17.4967 17.2749 17.4525 17.3807C17.4083 17.4865 17.3339 17.577 17.2386 17.6407C17.1433 17.7045 17.0313 17.7388 16.9167 17.7392Z" fill="#5E5E5E"/>
</g>
<defs>
<clipPath id="clip0_313_1397">
<rect width="21" height="21" fill="white"/>
</clipPath>
</defs>
</svg>
