<svg width="217" height="46" viewBox="0 0 217 46" fill="none" xmlns="http://www.w3.org/2000/svg">
<path d="M20.9524 28.6667H17.1429C16.0952 28.6667 15.2381 27.8095 15.2381 26.7619H1.92381V34.381C1.92381 36.4762 3.6381 38.1905 5.73333 38.1905H32.381C34.4762 38.1905 36.1905 36.4762 36.1905 34.381V26.7619H22.8571C22.8571 27.8095 22 28.6667 20.9524 28.6667ZM34.2857 11.5238H26.6667C26.6667 7.31431 23.2571 3.90479 19.0476 3.90479C14.8381 3.90479 11.4286 7.31431 11.4286 11.5238H3.80952C1.71429 11.5238 0 13.2381 0 15.3334V21.0476C0 23.1619 1.69524 24.8572 3.80952 24.8572H15.2381V22.9524C15.2381 21.9048 16.0952 21.0476 17.1429 21.0476H20.9524C22 21.0476 22.8571 21.9048 22.8571 22.9524V24.8572H34.2857C36.381 24.8572 38.0952 23.1429 38.0952 21.0476V15.3334C38.0952 13.2381 36.381 11.5238 34.2857 11.5238ZM15.2381 11.5238C15.2381 9.42859 16.9524 7.71431 19.0476 7.71431C21.1429 7.71431 22.8571 9.42859 22.8571 11.5238H15.219H15.2381Z" fill="#0A0A0A"/>
<path d="M61.1443 36H54.6786V17.3557H48.8348V12.0685H66.9717V17.3557H61.1443V36ZM76.4494 17.4539V36H70.0491V17.4539H76.4494ZM73.2738 9.98958C74.1905 9.98958 74.9871 10.1806 75.6637 10.5625C76.3512 10.9444 76.6949 11.7029 76.6949 12.8378C76.6949 13.94 76.3512 14.6875 75.6637 15.0804C74.9871 15.4623 74.1905 15.6533 73.2738 15.6533C72.3353 15.6533 71.5332 15.4623 70.8676 15.0804C70.2128 14.6875 69.8854 13.94 69.8854 12.8378C69.8854 11.7029 70.2128 10.9444 70.8676 10.5625C71.5332 10.1806 72.3353 9.98958 73.2738 9.98958ZM92.2455 22.25H88.3006V36H81.9003V22.25H79.4449V19.1071L82.0313 17.5357V17.2247C82.0313 15.6205 82.2441 14.3165 82.6696 13.3125C83.0952 12.2976 83.7718 11.5501 84.6994 11.0699C85.627 10.5898 86.8383 10.3497 88.3333 10.3497C89.2937 10.3497 90.1612 10.4261 90.936 10.5789C91.7217 10.7316 92.5402 10.9499 93.3914 11.2336L92.0164 15.375C91.6999 15.2877 91.3452 15.2113 90.9524 15.1458C90.5704 15.0804 90.1558 15.0476 89.7083 15.0476C89.2173 15.0476 88.8571 15.2004 88.628 15.506C88.4097 15.8006 88.3006 16.2862 88.3006 16.9628V17.4539H92.2455V22.25ZM106.094 22.25H102.149V36H95.7485V22.25H93.2932V19.1071L95.8795 17.5357V17.2247C95.8795 15.6205 96.0923 14.3165 96.5179 13.3125C96.9435 12.2976 97.62 11.5501 98.5476 11.0699C99.4752 10.5898 100.687 10.3497 102.182 10.3497C103.142 10.3497 104.009 10.4261 104.784 10.5789C105.57 10.7316 106.388 10.9499 107.24 11.2336L105.865 15.375C105.548 15.2877 105.193 15.2113 104.801 15.1458C104.419 15.0804 104.004 15.0476 103.557 15.0476C103.065 15.0476 102.705 15.2004 102.476 15.506C102.258 15.8006 102.149 16.2862 102.149 16.9628V17.4539H106.094V22.25ZM115.048 17.4539V36H108.647V17.4539H115.048ZM111.872 9.98958C112.789 9.98958 113.585 10.1806 114.262 10.5625C114.949 10.9444 115.293 11.7029 115.293 12.8378C115.293 13.94 114.949 14.6875 114.262 15.0804C113.585 15.4623 112.789 15.6533 111.872 15.6533C110.934 15.6533 110.131 15.4623 109.466 15.0804C108.811 14.6875 108.484 13.94 108.484 12.8378C108.484 11.7029 108.811 10.9444 109.466 10.5625C110.131 10.1806 110.934 9.98958 111.872 9.98958ZM131.122 17.1265C133.032 17.1265 134.592 17.6667 135.804 18.747C137.015 19.8274 137.621 21.557 137.621 23.936V36H131.22V25.8839C131.22 24.6508 131.04 23.7232 130.68 23.1012C130.331 22.4683 129.763 22.1518 128.978 22.1518C127.766 22.1518 126.953 22.6483 126.539 23.6414C126.124 24.6235 125.917 26.0367 125.917 27.881V36H119.516V17.4539H124.345L125.213 19.9092H125.458C125.851 19.3199 126.32 18.818 126.866 18.4033C127.412 17.9886 128.039 17.6721 128.749 17.4539C129.458 17.2356 130.249 17.1265 131.122 17.1265Z" fill="#0A0A0A"/>
<path d="M153.007 17.0283C152.244 17.0283 151.562 17.192 150.961 17.5193C150.361 17.8358 149.848 18.2996 149.423 18.9107C148.997 19.5218 148.67 20.2693 148.44 21.1533C148.222 22.0263 148.113 23.0193 148.113 24.1324C148.113 25.6384 148.304 26.9043 148.686 27.9301C149.068 28.9559 149.646 29.7307 150.421 30.2545C151.207 30.7783 152.189 31.0402 153.368 31.0402C154.437 31.0402 155.463 30.8929 156.445 30.5982C157.438 30.3036 158.437 29.9489 159.44 29.5342V35.0015C158.382 35.4707 157.296 35.809 156.183 36.0164C155.081 36.2237 153.908 36.3274 152.664 36.3274C150.066 36.3274 147.938 35.8145 146.28 34.7887C144.632 33.752 143.415 32.317 142.629 30.4836C141.855 28.6503 141.467 26.5223 141.467 24.0997C141.467 22.2882 141.718 20.6295 142.22 19.1235C142.733 17.6176 143.481 16.3135 144.463 15.2113C145.445 14.0982 146.656 13.2416 148.097 12.6414C149.548 12.0303 151.207 11.7247 153.073 11.7247C154.23 11.7247 155.446 11.8611 156.723 12.1339C158.011 12.3958 159.266 12.8214 160.488 13.4107L158.507 18.5015C157.634 18.0868 156.751 17.7376 155.856 17.4539C154.961 17.1701 154.011 17.0283 153.007 17.0283ZM171.963 12.0685C174.134 12.0685 175.94 12.3358 177.381 12.8705C178.821 13.3943 179.902 14.1801 180.622 15.2277C181.353 16.2753 181.719 17.5794 181.719 19.1399C181.719 20.1111 181.555 20.995 181.228 21.7917C180.9 22.5883 180.431 23.3031 179.82 23.936C179.22 24.558 178.5 25.1037 177.659 25.5729L184.632 36H177.299L172.225 27.2917H170.588V36H164.122V12.0685H171.963ZM171.865 16.9628H170.588V22.4301H171.799C172.792 22.4301 173.605 22.2118 174.238 21.7753C174.871 21.3388 175.188 20.5585 175.188 19.4345C175.188 18.6597 174.926 18.0541 174.402 17.6176C173.878 17.1811 173.032 16.9628 171.865 16.9628ZM197.237 36L192.342 18.7634H192.195C192.239 19.2108 192.282 19.8165 192.326 20.5804C192.38 21.3442 192.43 22.1682 192.473 23.0521C192.517 23.936 192.539 24.7872 192.539 25.6057V36H186.81V12.0685H195.42L200.412 29.0595H200.543L205.438 12.0685H214.064V36H208.122V25.5074C208.122 24.7545 208.133 23.9469 208.155 23.0848C208.188 22.2118 208.22 21.3934 208.253 20.6295C208.297 19.8547 208.335 19.2436 208.368 18.7961H208.22L203.391 36H197.237Z" fill="#1205A3"/>
</svg>
