<svg width="27" height="25" viewBox="0 0 27 25" fill="none" xmlns="http://www.w3.org/2000/svg">
<path d="M10.7507 20.7212L13.056 18.4159C13.6306 18.3274 14.2184 18.4227 14.7356 18.6882C15.2528 18.9538 15.6728 19.376 15.9356 19.8945C16.1985 20.413 16.2907 21.0014 16.1992 21.5755C16.1077 22.1496 15.837 22.6801 15.4259 23.0912C15.0149 23.5022 14.4844 23.7729 13.9103 23.8644C13.3362 23.956 12.7478 23.8637 12.2293 23.6009C11.7107 23.338 11.2885 22.918 11.023 22.4008C10.7575 21.8837 10.6622 21.2958 10.7507 20.7212ZM16.1647 15.3091L17.5251 13.9487C18.1887 14.3311 18.8009 14.8073 19.3395 15.368C19.5084 15.5437 19.6006 15.7794 19.5958 16.0231C19.591 16.2669 19.4895 16.4987 19.3138 16.6677C19.138 16.8366 18.9023 16.9288 18.6586 16.924C18.4148 16.9192 18.183 16.8177 18.0141 16.6419C17.4839 16.0888 16.8571 15.6371 16.1647 15.3091ZM20.1392 11.3328L21.4555 10.0183C22.0217 10.4448 22.5566 10.9191 23.0548 11.4376C23.1383 11.5247 23.2039 11.6275 23.2477 11.7399C23.2915 11.8524 23.3128 11.9724 23.3102 12.0931C23.3076 12.2138 23.2813 12.3328 23.2328 12.4433C23.1842 12.5539 23.1144 12.6537 23.0272 12.7373C22.9401 12.8208 22.8373 12.8863 22.7249 12.9302C22.6124 12.974 22.4924 12.9952 22.3717 12.9927C22.251 12.9901 22.132 12.9638 22.0215 12.9152C21.9109 12.8667 21.8111 12.7968 21.7275 12.7097C21.2412 12.2032 20.7095 11.7423 20.1392 11.3328ZM11.7508 9.32161C9.28628 9.69582 7.01249 10.8679 5.27795 12.6582C5.1074 12.8302 4.87589 12.9278 4.63373 12.93C4.39156 12.9322 4.15832 12.8388 3.98467 12.67C3.81102 12.5012 3.71101 12.2707 3.70636 12.0285C3.70171 11.7864 3.79281 11.5522 3.95985 11.3769C5.22378 10.073 6.74252 9.04318 8.42158 8.35151C10.1006 7.65983 11.9041 7.32111 13.7197 7.35641L11.7508 9.32161ZM24.0163 7.45752L25.3215 6.15229C25.8252 6.57511 26.3069 7.02735 26.7665 7.50532C26.925 7.68289 27.0085 7.91504 26.9993 8.15292C26.9902 8.3908 26.8891 8.61584 26.7173 8.78068C26.5456 8.94552 26.3166 9.0373 26.0785 9.0367C25.8405 9.0361 25.6119 8.94316 25.441 8.77746C24.9921 8.31026 24.5163 7.86954 24.0163 7.45752ZM17.0177 4.05657C15.8544 3.80417 14.6674 3.67721 13.477 3.67787C11.2589 3.67471 9.06287 4.11809 7.01975 4.98157C4.97663 5.84506 3.12823 7.11099 1.5847 8.70392C1.5009 8.79189 1.40049 8.86236 1.28929 8.91128C1.17808 8.9602 1.05828 8.98659 0.936817 8.98892C0.81535 8.99125 0.694627 8.96948 0.581626 8.92487C0.468625 8.88025 0.36559 8.81368 0.278478 8.729C0.191366 8.64431 0.121905 8.5432 0.0741123 8.43151C0.0263195 8.31982 0.00114275 8.19976 3.80069e-05 8.07827C-0.00106674 7.95679 0.0219223 7.83629 0.067676 7.72375C0.11343 7.6112 0.18104 7.50884 0.266598 7.42259C1.98145 5.65341 4.03476 4.24738 6.30428 3.28822C8.5738 2.32906 11.0131 1.83638 13.477 1.83951C15.2124 1.83951 16.911 2.08034 18.5325 2.54176L17.0177 4.05657ZM13.477 22.0614C13.7208 22.0614 13.9546 21.9646 14.127 21.7922C14.2993 21.6198 14.3962 21.386 14.3962 21.1422C14.3962 20.8984 14.2993 20.6646 14.127 20.4923C13.9546 20.3199 13.7208 20.223 13.477 20.223C13.2332 20.223 12.9994 20.3199 12.827 20.4923C12.6547 20.6646 12.5578 20.8984 12.5578 21.1422C12.5578 21.386 12.6547 21.6198 12.827 21.7922C12.9994 21.9646 13.2332 22.0614 13.477 22.0614ZM3.50578 23.8997C3.33242 24.0672 3.10023 24.1598 2.85923 24.1577C2.61822 24.1556 2.38768 24.059 2.21726 23.8885C2.04683 23.7181 1.95017 23.4876 1.94807 23.2466C1.94598 23.0056 2.03862 22.7734 2.20606 22.6L24.7755 0.269561C24.9481 0.0969639 25.1822 0 25.4263 0C25.6704 0 25.9045 0.0969639 26.0771 0.269561C26.2497 0.442157 26.3466 0.676249 26.3466 0.920337C26.3466 1.16443 26.2497 1.39852 26.0771 1.57111L3.50578 23.8997Z" fill="#1205A3"/>
</svg>
