<svg width="28" height="29" viewBox="0 0 28 29" fill="none" xmlns="http://www.w3.org/2000/svg">
<path d="M23.275 25.3333C20.8444 25.3333 18.4431 24.8037 16.0708 23.7443C13.6986 22.685 11.5403 21.1827 9.59583 19.2375C7.65139 17.2931 6.1495 15.1347 5.09017 12.7625C4.03083 10.3903 3.50078 7.98889 3.5 5.55834C3.5 5.20834 3.61667 4.91667 3.85 4.68334C4.08333 4.45 4.375 4.33334 4.725 4.33334H9.45C9.72222 4.33334 9.96528 4.42589 10.1792 4.611C10.3931 4.79612 10.5194 5.01467 10.5583 5.26667L11.3167 9.35C11.3556 9.66112 11.3458 9.92362 11.2875 10.1375C11.2292 10.3514 11.1222 10.5361 10.9667 10.6917L8.1375 13.55C8.52639 14.2694 8.988 14.9644 9.52233 15.6348C10.0567 16.3053 10.6451 16.952 11.2875 17.575C11.8903 18.1778 12.5222 18.737 13.1833 19.2527C13.8444 19.7683 14.5444 20.2397 15.2833 20.6667L18.025 17.925C18.2 17.75 18.4287 17.6189 18.711 17.5318C18.9933 17.4447 19.2702 17.4202 19.5417 17.4583L23.5667 18.275C23.8389 18.3528 24.0625 18.4939 24.2375 18.6985C24.4125 18.9031 24.5 19.1313 24.5 19.3833V24.1083C24.5 24.4583 24.3833 24.75 24.15 24.9833C23.9167 25.2167 23.625 25.3333 23.275 25.3333Z" fill="#5546AF"/>
</svg>
