<svg width="13" height="13" viewBox="0 0 13 13" fill="none" xmlns="http://www.w3.org/2000/svg">
<path d="M6.5 7.01133L8.84433 9.35567C8.91174 9.42307 8.99456 9.45918 9.09278 9.464C9.191 9.46881 9.27863 9.4327 9.35567 9.35567C9.4327 9.27863 9.47122 9.19341 9.47122 9.1C9.47122 9.00659 9.4327 8.92137 9.35567 8.84433L7.01133 6.5L9.35567 4.15567C9.42307 4.08826 9.45918 4.00544 9.464 3.90722C9.46881 3.809 9.4327 3.72137 9.35567 3.64433C9.27863 3.5673 9.19341 3.52878 9.1 3.52878C9.00659 3.52878 8.92137 3.5673 8.84433 3.64433L6.5 5.98867L4.15567 3.64433C4.08826 3.57693 4.00544 3.54081 3.90722 3.536C3.809 3.53118 3.72137 3.5673 3.64433 3.64433C3.5673 3.72137 3.52878 3.80659 3.52878 3.9C3.52878 3.99341 3.5673 4.07863 3.64433 4.15567L5.98867 6.5L3.64433 8.84433C3.57693 8.91174 3.54081 8.99456 3.536 9.09278C3.53118 9.191 3.5673 9.27863 3.64433 9.35567C3.72137 9.4327 3.80659 9.47122 3.9 9.47122C3.99341 9.47122 4.07863 9.4327 4.15567 9.35567L6.5 7.01133ZM6.50217 13C5.60372 13 4.75872 12.8296 3.96717 12.4887C3.17609 12.1473 2.48781 11.6841 1.90233 11.0991C1.31685 10.5146 0.853426 9.82704 0.512056 9.03644C0.170685 8.24585 0 7.40109 0 6.50217C0 5.60372 0.170444 4.75872 0.511333 3.96717C0.852704 3.17609 1.31589 2.48781 1.90089 1.90233C2.48541 1.31685 3.17296 0.853426 3.96356 0.512056C4.75415 0.170685 5.59891 0 6.49783 0C7.39628 0 8.24128 0.170444 9.03283 0.511333C9.82391 0.852704 10.5122 1.31589 11.0977 1.90089C11.6831 2.48541 12.1466 3.17296 12.4879 3.96356C12.8293 4.75415 13 5.59891 13 6.49783C13 7.39628 12.8296 8.24128 12.4887 9.03283C12.1473 9.82391 11.6841 10.5122 11.0991 11.0977C10.5146 11.6831 9.82704 12.1466 9.03644 12.4879C8.24585 12.8293 7.40109 13 6.50217 13Z" fill="#585859"/>
</svg>
