 <svg width="16" height="16" viewBox="0 0 14 13" fill="none" xmlns="http://www.w3.org/2000/svg">
<path d="M4.3 10.231L7 7.531L9.7 10.231L10.231 9.7L7.531 7L10.231 4.3L9.7 3.769L7 6.469L4.3 3.769L3.769 4.3L6.469 7L3.769 9.7L4.3 10.231ZM7.00225 13.75C6.06925 13.75 5.19175 13.573 4.36975 13.219C3.54825 12.8645 2.8335 12.3835 2.2255 11.776C1.6175 11.169 1.13625 10.455 0.78175 9.634C0.42725 8.813 0.25 7.93575 0.25 7.00225C0.25 6.06925 0.427 5.19175 0.781 4.36975C1.1355 3.54825 1.6165 2.8335 2.224 2.2255C2.831 1.6175 3.545 1.13625 4.366 0.78175C5.187 0.42725 6.06425 0.25 6.99775 0.25C7.93075 0.25 8.80825 0.427 9.63025 0.781C10.4517 1.1355 11.1665 1.6165 11.7745 2.224C12.3825 2.831 12.8638 3.545 13.2183 4.366C13.5728 5.187 13.75 6.06425 13.75 6.99775C13.75 7.93075 13.573 8.80825 13.219 9.63025C12.8645 10.4517 12.3835 11.1665 11.776 11.7745C11.169 12.3825 10.455 12.8638 9.634 13.2183C8.813 13.5728 7.93575 13.75 7.00225 13.75ZM7 13C8.675 13 10.0937 12.4187 11.2562 11.2562C12.4187 10.0937 13 8.675 13 7C13 5.325 12.4187 3.90625 11.2562 2.74375C10.0937 1.58125 8.675 1 7 1C5.325 1 3.90625 1.58125 2.74375 2.74375C1.58125 3.90625 1 5.325 1 7C1 8.675 1.58125 10.0937 2.74375 11.2562C3.90625 12.4187 5.325 13 7 13Z" fill="#585859"/>
</svg>
