<svg width="11" height="11" viewBox="0 0 11 11" fill="none" xmlns="http://www.w3.org/2000/svg">
<g clip-path="url(#clip0_105_1761)">
<path d="M5.5 0C6.00488 0 6.49186 0.0644531 6.96094 0.193359C7.43001 0.322266 7.86686 0.508464 8.27148 0.751953C8.67611 0.995443 9.04671 1.2819 9.3833 1.61133C9.71989 1.94076 10.0081 2.31136 10.248 2.72314C10.488 3.13493 10.6724 3.57357 10.8013 4.03906C10.9302 4.50456 10.9964 4.99154 11 5.5C11 6.00488 10.9355 6.49186 10.8066 6.96094C10.6777 7.43001 10.4915 7.86686 10.248 8.27148C10.0046 8.67611 9.7181 9.04671 9.38867 9.3833C9.05925 9.71989 8.68864 10.0081 8.27686 10.248C7.86507 10.488 7.42643 10.6724 6.96094 10.8013C6.49544 10.9302 6.00846 10.9964 5.5 11C4.99512 11 4.50814 10.9355 4.03906 10.8066C3.56999 10.6777 3.13314 10.4915 2.72852 10.248C2.32389 10.0046 1.95329 9.7181 1.6167 9.38867C1.28011 9.05925 0.991862 8.68864 0.751953 8.27686C0.512044 7.86507 0.327637 7.42643 0.19873 6.96094C0.0698242 6.49544 0.00358073 6.00846 0 5.5C0 4.99512 0.0644531 4.50814 0.193359 4.03906C0.322266 3.56999 0.508464 3.13314 0.751953 2.72852C0.995443 2.32389 1.2819 1.95329 1.61133 1.6167C1.94076 1.28011 2.31136 0.991862 2.72314 0.751953C3.13493 0.512044 3.57357 0.327637 4.03906 0.19873C4.50456 0.0698242 4.99154 0.00358073 5.5 0ZM8.25 5.5H5.5V2.0625H4.8125V6.1875H8.25V5.5Z" fill="#3E3D3D"/>
</g>
<defs>
<clipPath id="clip0_105_1761">
<rect width="11" height="11" fill="white"/>
</clipPath>
</defs>
</svg>
