<svg width="15" height="15" viewBox="0 0 15 15" fill="none" xmlns="http://www.w3.org/2000/svg">
<path fill-rule="evenodd" clip-rule="evenodd" d="M13.4094 3.385C13.4688 3.47513 13.4953 3.58299 13.4843 3.69037C13.4734 3.79774 13.4258 3.89806 13.3494 3.97437L7.60381 9.71937C7.54503 9.77812 7.47169 9.82018 7.39131 9.84125L4.99818 10.4662C4.91907 10.4869 4.83595 10.4865 4.75705 10.465C4.67816 10.4436 4.60623 10.4019 4.54843 10.3441C4.49062 10.2863 4.44893 10.2144 4.42751 10.1355C4.40609 10.0566 4.40567 9.97348 4.42631 9.89437L5.05131 7.50187C5.06955 7.43006 5.10397 7.36336 5.15193 7.30687L10.9188 1.54375C11.0067 1.45597 11.1258 1.40666 11.2501 1.40666C11.3743 1.40666 11.4934 1.45597 11.5813 1.54375L13.3494 3.31125C13.3719 3.33375 13.392 3.35846 13.4094 3.385ZM12.3551 3.6425L11.2501 2.53812L5.92631 7.86187L5.53568 9.3575L7.03131 8.96687L12.3551 3.6425Z" fill="#5546AF"/>
<path d="M12.2757 10.725C12.4465 9.26497 12.501 7.79368 12.4388 6.32501C12.4374 6.2904 12.4432 6.2559 12.4558 6.22363C12.4684 6.19137 12.4875 6.16205 12.5119 6.13751L13.1269 5.52251C13.1437 5.5056 13.165 5.49392 13.1883 5.48885C13.2116 5.48377 13.2359 5.48554 13.2582 5.49392C13.2805 5.5023 13.2999 5.51695 13.3141 5.5361C13.3283 5.55525 13.3366 5.5781 13.3382 5.60188C13.4539 7.3464 13.41 9.09785 13.2069 10.8344C13.0594 12.0981 12.0444 13.0888 10.7863 13.2294C8.60213 13.4713 6.39794 13.4713 4.21378 13.2294C2.95628 13.0888 1.94066 12.0981 1.79316 10.8344C1.53403 8.61901 1.53403 6.381 1.79316 4.16563C1.94066 2.90188 2.95566 1.91126 4.21378 1.77063C5.87152 1.58681 7.54174 1.54228 9.20691 1.63751C9.23074 1.63922 9.25358 1.64772 9.27273 1.66201C9.29187 1.6763 9.30652 1.69578 9.31494 1.71814C9.32336 1.7405 9.32519 1.76481 9.32023 1.78818C9.31526 1.81155 9.3037 1.833 9.28691 1.85001L8.66628 2.47001C8.64198 2.49422 8.61297 2.51321 8.58104 2.52578C8.54912 2.53836 8.51495 2.54426 8.48066 2.54313C7.09113 2.4959 5.70001 2.54916 4.31816 2.70251C3.91437 2.7472 3.53744 2.92671 3.24826 3.21204C2.95907 3.49737 2.77452 3.87185 2.72441 4.27501C2.47382 6.4177 2.47382 8.58231 2.72441 10.725C2.77452 11.1282 2.95907 11.5026 3.24826 11.788C3.53744 12.0733 3.91437 12.2528 4.31816 12.2975C6.41503 12.5319 8.58503 12.5319 10.6825 12.2975C11.0863 12.2528 11.4633 12.0733 11.7524 11.788C12.0416 11.5026 12.2256 11.1282 12.2757 10.725Z" fill="#5546AF"/>
</svg>
