<svg width="15" height="15" viewBox="0 0 15 15" fill="none" xmlns="http://www.w3.org/2000/svg">
<path fill-rule="evenodd" clip-rule="evenodd" d="M13.4094 3.38498C13.4688 3.47511 13.4953 3.58297 13.4843 3.69035C13.4734 3.79773 13.4258 3.89805 13.3494 3.97436L7.60381 9.71936C7.54503 9.7781 7.47169 9.82016 7.39131 9.84123L4.99818 10.4662C4.91907 10.4869 4.83595 10.4865 4.75705 10.465C4.67816 10.4436 4.60623 10.4019 4.54843 10.3441C4.49062 10.2863 4.44893 10.2144 4.42751 10.1355C4.40609 10.0566 4.40567 9.97347 4.42631 9.89436L5.05131 7.50186C5.06955 7.43004 5.10397 7.36334 5.15193 7.30686L10.9188 1.54373C11.0067 1.45595 11.1258 1.40665 11.2501 1.40665C11.3743 1.40665 11.4934 1.45595 11.5813 1.54373L13.3494 3.31123C13.3719 3.33374 13.392 3.35845 13.4094 3.38498ZM12.3551 3.64248L11.2501 2.53811L5.92631 7.86186L5.53568 9.35748L7.03131 8.96686L12.3551 3.64248Z" fill="#585859"/>
<path d="M12.2757 10.725C12.4465 9.26496 12.501 7.79366 12.4388 6.32499C12.4374 6.29039 12.4432 6.25588 12.4558 6.22362C12.4684 6.19136 12.4875 6.16204 12.5119 6.13749L13.1269 5.52249C13.1437 5.50559 13.165 5.4939 13.1883 5.48883C13.2116 5.48376 13.2359 5.48552 13.2582 5.4939C13.2805 5.50229 13.2999 5.51694 13.3141 5.53609C13.3283 5.55524 13.3366 5.57808 13.3382 5.60187C13.4539 7.34639 13.41 9.09784 13.2069 10.8344C13.0594 12.0981 12.0444 13.0887 10.7863 13.2294C8.60213 13.4712 6.39794 13.4712 4.21378 13.2294C2.95628 13.0887 1.94066 12.0981 1.79316 10.8344C1.53403 8.619 1.53403 6.38098 1.79316 4.16562C1.94066 2.90187 2.95566 1.91124 4.21378 1.77062C5.87152 1.58679 7.54174 1.54226 9.20691 1.63749C9.23074 1.6392 9.25358 1.64771 9.27273 1.662C9.29187 1.67629 9.30652 1.69577 9.31494 1.71813C9.32336 1.74049 9.32519 1.76479 9.32023 1.78816C9.31526 1.81153 9.3037 1.83299 9.28691 1.84999L8.66628 2.46999C8.64198 2.49421 8.61297 2.51319 8.58104 2.52577C8.54912 2.53834 8.51495 2.54425 8.48066 2.54311C7.09113 2.49588 5.70001 2.54914 4.31816 2.70249C3.91437 2.74718 3.53744 2.92669 3.24826 3.21202C2.95907 3.49735 2.77452 3.87184 2.72441 4.27499C2.47382 6.41769 2.47382 8.58229 2.72441 10.725C2.77452 11.1281 2.95907 11.5026 3.24826 11.788C3.53744 12.0733 3.91437 12.2528 4.31816 12.2975C6.41503 12.5319 8.58503 12.5319 10.6825 12.2975C11.0863 12.2528 11.4633 12.0733 11.7524 11.788C12.0416 11.5026 12.2256 11.1281 12.2757 10.725Z" fill="#585859"/>
</svg>
