<svg width="39" height="35" viewBox="0 0 39 35" fill="none" xmlns="http://www.w3.org/2000/svg">
<path d="M20.9524 24.7619H17.1429C16.0952 24.7619 15.2381 23.9048 15.2381 22.8571H1.92381V30.4762C1.92381 32.5714 3.6381 34.2857 5.73333 34.2857H32.381C34.4762 34.2857 36.1905 32.5714 36.1905 30.4762V22.8571H22.8571C22.8571 23.9048 22 24.7619 20.9524 24.7619ZM34.2857 7.61905H26.6667C26.6667 3.40952 23.2571 0 19.0476 0C14.8381 0 11.4286 3.40952 11.4286 7.61905H3.80952C1.71429 7.61905 0 9.33333 0 11.4286V17.1429C0 19.2571 1.69524 20.9524 3.80952 20.9524H15.2381V19.0476C15.2381 18 16.0952 17.1429 17.1429 17.1429H20.9524C22 17.1429 22.8571 18 22.8571 19.0476V20.9524H34.2857C36.381 20.9524 38.0952 19.2381 38.0952 17.1429V11.4286C38.0952 9.33333 36.381 7.61905 34.2857 7.61905ZM15.2381 7.61905C15.2381 5.52381 16.9524 3.80952 19.0476 3.80952C21.1429 3.80952 22.8571 5.52381 22.8571 7.61905H15.219H15.2381Z" fill="#1205A3"/>
</svg>
 