<svg width="14" height="14" viewBox="0 0 14 14" fill="none" xmlns="http://www.w3.org/2000/svg">
<path d="M0 7C0 3.13425 3.13425 0 7 0C10.8657 0 14 3.13425 14 7C14 10.8657 10.8657 14 7 14C3.136 13.9953 0.00466667 10.864 0 7.00058V7ZM1.4 7C1.4 10.0928 3.90717 12.6 7 12.6C10.0928 12.6 12.6 10.0928 12.6 7C12.6 3.90717 10.0928 1.4 7 1.4C3.90892 1.4035 1.4035 3.90892 1.4 6.99942V7ZM3.73333 7C3.73333 6.13363 4.0775 5.30274 4.69012 4.69012C5.30274 4.0775 6.13363 3.73333 7 3.73333C7.86637 3.73333 8.69726 4.0775 9.30988 4.69012C9.9225 5.30274 10.2667 6.13363 10.2667 7C10.2667 7.86637 9.9225 8.69726 9.30988 9.30988C8.69726 9.9225 7.86637 10.2667 7 10.2667C6.13363 10.2667 5.30274 9.9225 4.69012 9.30988C4.0775 8.69726 3.73333 7.86637 3.73333 7Z" fill="#33890B"/>
</svg>
