<svg width="25" height="25" viewBox="0 0 25 25" fill="none" xmlns="http://www.w3.org/2000/svg">
<path d="M21.1914 17.8711H19.4751C19.3579 17.8711 19.248 17.9224 19.1748 18.0127C19.0039 18.2203 18.8208 18.4204 18.6279 18.6109C17.8391 19.4005 16.9047 20.0298 15.8765 20.4639C14.8112 20.9139 13.6662 21.1447 12.5098 21.1426C11.3403 21.1426 10.2075 20.9131 9.14306 20.4639C8.11481 20.0298 7.18043 19.4005 6.39159 18.6109C5.60135 17.8239 4.97123 16.8912 4.53613 15.8643C4.08447 14.7998 3.85742 13.6695 3.85742 12.5C3.85742 11.3306 4.08691 10.2002 4.53613 9.13578C4.9707 8.10795 5.5957 7.18265 6.39159 6.3892C7.18749 5.59574 8.11279 4.97074 9.14306 4.53617C10.2075 4.08695 11.3403 3.85746 12.5098 3.85746C13.6792 3.85746 14.812 4.08451 15.8765 4.53617C16.9067 4.97074 17.832 5.59574 18.6279 6.3892C18.8208 6.58207 19.0015 6.78226 19.1748 6.98734C19.248 7.07767 19.3603 7.12894 19.4751 7.12894H21.1914C21.3452 7.12894 21.4404 6.95804 21.355 6.82865C19.4824 3.91849 16.206 1.99222 12.4829 2.00199C6.63329 2.01664 1.94335 6.76517 2.00195 12.6075C2.06054 18.357 6.74316 22.9981 12.5098 22.9981C16.2231 22.9981 19.4849 21.0743 21.355 18.1714C21.438 18.042 21.3452 17.8711 21.1914 17.8711ZM23.3618 12.3462L19.8975 9.61185C19.7681 9.50931 19.5801 9.60209 19.5801 9.76566V11.6211H11.9141C11.8066 11.6211 11.7187 11.709 11.7187 11.8164V13.1836C11.7187 13.2911 11.8066 13.3789 11.9141 13.3789H19.5801V15.2344C19.5801 15.398 19.7705 15.4908 19.8975 15.3882L23.3618 12.6538C23.3852 12.6356 23.404 12.6122 23.417 12.5856C23.43 12.5589 23.4367 12.5297 23.4367 12.5C23.4367 12.4704 23.43 12.4411 23.417 12.4145C23.404 12.3878 23.3852 12.3645 23.3618 12.3462Z" fill="#494949"/>
</svg>
