<svg width="233" height="35" viewBox="0 0 233 35" fill="none" xmlns="http://www.w3.org/2000/svg">
    <path d="M41.8522 4.0367C41.8522 3.05914 42.1738 2.23592 42.8169 1.56706C43.4858 0.898196 44.3605 0.563765 45.4409 0.563765C46.5214 0.563765 47.3832 0.898196 48.0264 1.56706C48.6952 2.23592 49.0296 3.05914 49.0296 4.0367C49.0296 5.01427 48.6952 5.83749 48.0264 6.50635C47.3832 7.17522 46.5214 7.50965 45.4409 7.50965C44.3605 7.50965 43.4858 7.17522 42.8169 6.50635C42.1738 5.83749 41.8522 5.01427 41.8522 4.0367ZM48.7209 27.9614C48.438 28.0129 48.0135 28.0772 47.4475 28.1544C46.9073 28.2573 46.3542 28.3087 45.7882 28.3087C45.2223 28.3087 44.7078 28.2701 44.2447 28.1929C43.8074 28.1158 43.4344 27.9614 43.1256 27.7299C42.8169 27.4984 42.5725 27.1896 42.3925 26.8038C42.2381 26.3922 42.1609 25.8648 42.1609 25.2216V9.51623C42.4439 9.46478 42.8555 9.40047 43.3958 9.32329C43.9617 9.22039 44.5277 9.16894 45.0936 9.16894C45.6596 9.16894 46.1613 9.20753 46.5986 9.28471C47.0616 9.36188 47.4475 9.51624 47.7562 9.74776C48.0649 9.97929 48.2965 10.3009 48.4508 10.7125C48.6309 11.0984 48.7209 11.6129 48.7209 12.256V27.9614ZM69.5673 22.2504C69.2329 22.5333 68.7956 22.7649 68.2553 22.9449C67.7408 23.0993 67.1363 23.1765 66.4417 23.1765C65.5156 23.1765 64.7438 23.0607 64.1264 22.8292C63.5347 22.5976 63.1488 22.1989 62.9687 21.6329C62.2484 19.3691 61.6567 17.5426 61.1937 16.1534C60.7306 14.7385 60.3705 13.5037 60.1132 12.4489H59.9203C59.8431 13.9667 59.7788 15.3559 59.7273 16.6165C59.7016 17.8513 59.6759 19.0604 59.6502 20.2438C59.6502 21.4271 59.6244 22.6234 59.573 23.8325C59.5473 25.0416 59.4958 26.3793 59.4186 27.8456C59.0842 27.9743 58.6469 28.0772 58.1066 28.1544C57.5664 28.2573 57.0262 28.3087 56.4859 28.3087C55.354 28.3087 54.4665 28.1286 53.8233 27.7685C53.2059 27.4083 52.8972 26.7523 52.8972 25.8005L54.0163 6.12047C54.2221 5.78604 54.6723 5.42588 55.3669 5.04C56.0614 4.65412 57.039 4.46118 58.2996 4.46118C59.663 4.46118 60.7306 4.67984 61.5024 5.11718C62.2742 5.52878 62.8401 6.21051 63.2003 7.16235C63.4318 7.77976 63.6762 8.48722 63.9334 9.28471C64.2164 10.0822 64.4865 10.9054 64.7438 11.7544C65.0268 12.6033 65.2969 13.4522 65.5542 14.3012C65.8114 15.1244 66.0429 15.8704 66.2487 16.5393H66.4417C67.0591 14.3784 67.6765 12.2946 68.2939 10.288C68.9113 8.25569 69.4773 6.5578 69.9918 5.19435C70.3777 4.98855 70.8665 4.82133 71.4582 4.69271C72.0756 4.53835 72.7573 4.46118 73.5033 4.46118C74.7639 4.46118 75.7929 4.65412 76.5904 5.04C77.3879 5.40016 77.8509 5.92753 77.9796 6.62212C78.0825 7.13663 78.1854 7.93412 78.2883 9.01459C78.4169 10.0693 78.5455 11.2656 78.6742 12.6033C78.8028 13.941 78.9314 15.3559 79.06 16.848C79.1887 18.3401 79.3044 19.7807 79.4073 21.1699C79.536 22.5333 79.6389 23.7939 79.716 24.9515C79.7932 26.0835 79.8447 26.9581 79.8704 27.5755C79.4331 27.8328 78.97 28.0129 78.4812 28.1158C78.0182 28.2444 77.4136 28.3087 76.6676 28.3087C75.69 28.3087 74.8668 28.1415 74.1979 27.8071C73.5291 27.4726 73.1689 26.8166 73.1174 25.8391C72.9631 23.035 72.8602 20.5139 72.8087 18.2758C72.783 16.0376 72.7316 14.1597 72.6544 12.6419H72.4614C72.2042 13.6452 71.8312 14.9057 71.3424 16.4235C70.8536 17.9413 70.2619 19.8836 69.5673 22.2504ZM93.4137 28.6174C91.8959 28.6174 90.4809 28.4116 89.169 28C87.8827 27.5627 86.7508 26.9195 85.7732 26.0706C84.8213 25.2216 84.0624 24.154 83.4965 22.8678C82.9562 21.5815 82.6861 20.0765 82.6861 18.3529C82.6861 16.6551 82.9562 15.2016 83.4965 13.9925C84.0624 12.7576 84.7956 11.7544 85.696 10.9826C86.5964 10.1851 87.6254 9.60627 88.7831 9.24612C89.9407 8.86023 91.1241 8.66729 92.3332 8.66729C93.6966 8.66729 94.9315 8.8731 96.0377 9.28471C97.1696 9.69631 98.1343 10.2623 98.9318 10.9826C99.755 11.7029 100.385 12.5647 100.823 13.568C101.286 14.5713 101.517 15.6646 101.517 16.848C101.517 17.7227 101.273 18.3915 100.784 18.8546C100.295 19.3176 99.6135 19.6135 98.7388 19.7421L89.2075 21.1699C89.4905 22.0188 90.0693 22.662 90.944 23.0993C91.8187 23.5109 92.822 23.7167 93.9539 23.7167C95.0086 23.7167 95.9991 23.5881 96.9252 23.3308C97.877 23.0478 98.6488 22.7263 99.2405 22.3661C99.6521 22.6234 99.9994 22.9835 100.282 23.4466C100.565 23.9096 100.707 24.3984 100.707 24.9129C100.707 26.0706 100.167 26.9324 99.0861 27.4984C98.2629 27.9357 97.3368 28.2315 96.3078 28.3859C95.2788 28.5402 94.314 28.6174 93.4137 28.6174ZM92.3332 13.4522C91.7158 13.4522 91.1755 13.5551 90.7125 13.7609C90.2751 13.9667 89.915 14.2369 89.632 14.5713C89.349 14.88 89.1304 15.2402 88.976 15.6518C88.8474 16.0376 88.7702 16.4364 88.7445 16.848L95.3431 15.7675C95.2659 15.253 94.9829 14.7385 94.4941 14.224C94.0053 13.7095 93.285 13.4522 92.3332 13.4522ZM112.701 23.8325C113.138 23.8325 113.614 23.7939 114.129 23.7167C114.669 23.6138 115.068 23.4852 115.325 23.3308V20.2438L112.547 20.4753C111.826 20.5267 111.235 20.6811 110.772 20.9384C110.309 21.1956 110.077 21.5815 110.077 22.096C110.077 22.6105 110.27 23.035 110.656 23.3694C111.068 23.6781 111.749 23.8325 112.701 23.8325ZM112.392 8.66729C113.782 8.66729 115.042 8.80878 116.174 9.09176C117.332 9.37474 118.309 9.81208 119.107 10.4038C119.93 10.9697 120.56 11.7029 120.998 12.6033C121.435 13.478 121.654 14.5198 121.654 15.7289V24.3727C121.654 25.0416 121.461 25.5947 121.075 26.032C120.715 26.4436 120.277 26.8038 119.763 27.1125C118.091 28.1158 115.737 28.6174 112.701 28.6174C111.338 28.6174 110.103 28.4888 108.997 28.2315C107.916 27.9743 106.977 27.5884 106.18 27.0739C105.408 26.5594 104.803 25.9034 104.366 25.1059C103.954 24.3084 103.749 23.3823 103.749 22.3275C103.749 20.5525 104.276 19.189 105.331 18.2372C106.386 17.2853 108.019 16.6936 110.231 16.4621L115.287 15.9219V15.6518C115.287 14.9057 114.952 14.3784 114.283 14.0696C113.64 13.7352 112.701 13.568 111.466 13.568C110.489 13.568 109.537 13.6709 108.611 13.8767C107.685 14.0825 106.849 14.3398 106.103 14.6485C105.768 14.4169 105.485 14.0696 105.254 13.6066C105.022 13.1178 104.906 12.6162 104.906 12.1016C104.906 11.4328 105.061 10.9054 105.369 10.5195C105.704 10.1079 106.205 9.76063 106.874 9.47765C107.62 9.19467 108.495 8.98886 109.498 8.86024C110.527 8.73161 111.492 8.66729 112.392 8.66729ZM132.34 27.9614C132.057 28.0129 131.633 28.0772 131.067 28.1544C130.527 28.2573 129.974 28.3087 129.408 28.3087C128.842 28.3087 128.327 28.2701 127.864 28.1929C127.427 28.1158 127.054 27.9614 126.745 27.7299C126.436 27.4984 126.192 27.1896 126.012 26.8038C125.858 26.3922 125.78 25.8648 125.78 25.2216V2.84047C126.063 2.78902 126.475 2.72471 127.015 2.64753C127.581 2.54463 128.147 2.49318 128.713 2.49318C129.279 2.49318 129.781 2.53176 130.218 2.60894C130.681 2.68612 131.067 2.84047 131.376 3.072C131.684 3.30353 131.916 3.6251 132.07 4.0367C132.25 4.42259 132.34 4.9371 132.34 5.58023V27.9614Z" fill="#1205A3"/>
    <path d="M149.685 5.31012C150.122 5.05286 150.778 4.80847 151.653 4.57694C152.553 4.34541 153.453 4.22965 154.354 4.22965C155.64 4.22965 156.772 4.42259 157.75 4.80847C158.753 5.16863 159.396 5.74745 159.679 6.54494C160.142 7.88267 160.644 9.43906 161.184 11.2141C161.724 12.9892 162.264 14.8285 162.805 16.7322C163.345 18.6102 163.872 20.4753 164.387 22.3275C164.901 24.154 165.351 25.7747 165.737 27.1896C165.429 27.5498 164.966 27.8328 164.348 28.0386C163.731 28.2701 162.998 28.3859 162.149 28.3859C161.531 28.3859 161.004 28.3344 160.567 28.2315C160.155 28.1286 159.808 27.9743 159.525 27.7685C159.267 27.5627 159.049 27.2925 158.869 26.9581C158.714 26.6237 158.573 26.2378 158.444 25.8005L157.75 23.1379H150.765C150.559 23.9096 150.354 24.7071 150.148 25.5304C149.942 26.3536 149.736 27.1511 149.53 27.9228C149.17 28.0515 148.784 28.1544 148.373 28.2315C147.987 28.3344 147.511 28.3859 146.945 28.3859C145.633 28.3859 144.655 28.1672 144.012 27.7299C143.395 27.2668 143.086 26.6365 143.086 25.8391C143.086 25.4789 143.138 25.1187 143.24 24.7586C143.343 24.3984 143.459 23.974 143.588 23.4852C143.768 22.7906 144.012 21.9288 144.321 20.8998C144.655 19.8707 145.015 18.7645 145.401 17.5812C145.787 16.3721 146.199 15.1373 146.636 13.8767C147.074 12.6162 147.485 11.4328 147.871 10.3266C148.257 9.19467 148.604 8.19137 148.913 7.31671C149.247 6.44204 149.505 5.77318 149.685 5.31012ZM154.315 10.288C153.955 11.3685 153.543 12.5776 153.08 13.9153C152.643 15.2273 152.244 16.565 151.884 17.9285H156.669C156.309 16.5393 155.936 15.1887 155.55 13.8767C155.19 12.539 154.855 11.3427 154.547 10.288H154.315ZM177.003 8.66729C178.547 8.66729 179.975 8.8731 181.287 9.28471C182.624 9.67059 183.769 10.2751 184.721 11.0984C185.673 11.9216 186.419 12.9635 186.959 14.224C187.499 15.4588 187.769 16.938 187.769 18.6616C187.769 20.3081 187.538 21.7487 187.075 22.9835C186.612 24.2184 185.956 25.2602 185.107 26.1092C184.258 26.9324 183.229 27.5498 182.02 27.9614C180.836 28.373 179.512 28.5788 178.045 28.5788C176.939 28.5788 175.91 28.4116 174.958 28.0772V34.4828C174.701 34.56 174.289 34.6372 173.723 34.7144C173.157 34.8173 172.579 34.8687 171.987 34.8687C171.421 34.8687 170.906 34.8301 170.443 34.7529C170.006 34.6758 169.633 34.5214 169.324 34.2899C169.016 34.0584 168.784 33.7368 168.63 33.3252C168.475 32.9393 168.398 32.4248 168.398 31.7816V13.2593C168.398 12.5647 168.54 11.9987 168.823 11.5614C169.131 11.1241 169.543 10.7253 170.057 10.3652C170.855 9.85067 171.845 9.43906 173.029 9.13035C174.212 8.82165 175.537 8.66729 177.003 8.66729ZM177.08 23.408C179.73 23.408 181.055 21.8259 181.055 18.6616C181.055 17.0152 180.721 15.7933 180.052 14.9958C179.409 14.1983 178.47 13.7995 177.235 13.7995C176.746 13.7995 176.309 13.8638 175.923 13.9925C175.537 14.0954 175.203 14.224 174.92 14.3784V22.8678C175.228 23.0221 175.563 23.1507 175.923 23.2536C176.283 23.3565 176.669 23.408 177.08 23.408ZM199.576 8.66729C201.119 8.66729 202.547 8.8731 203.859 9.28471C205.197 9.67059 206.342 10.2751 207.294 11.0984C208.245 11.9216 208.991 12.9635 209.532 14.224C210.072 15.4588 210.342 16.938 210.342 18.6616C210.342 20.3081 210.111 21.7487 209.647 22.9835C209.184 24.2184 208.528 25.2602 207.679 26.1092C206.831 26.9324 205.801 27.5498 204.592 27.9614C203.409 28.373 202.084 28.5788 200.618 28.5788C199.512 28.5788 198.483 28.4116 197.531 28.0772V34.4828C197.273 34.56 196.862 34.6372 196.296 34.7144C195.73 34.8173 195.151 34.8687 194.559 34.8687C193.993 34.8687 193.479 34.8301 193.016 34.7529C192.579 34.6758 192.206 34.5214 191.897 34.2899C191.588 34.0584 191.357 33.7368 191.202 33.3252C191.048 32.9393 190.971 32.4248 190.971 31.7816V13.2593C190.971 12.5647 191.112 11.9987 191.395 11.5614C191.704 11.1241 192.116 10.7253 192.63 10.3652C193.428 9.85067 194.418 9.43906 195.601 9.13035C196.785 8.82165 198.11 8.66729 199.576 8.66729ZM199.653 23.408C202.303 23.408 203.628 21.8259 203.628 18.6616C203.628 17.0152 203.293 15.7933 202.624 14.9958C201.981 14.1983 201.042 13.7995 199.807 13.7995C199.319 13.7995 198.881 13.8638 198.495 13.9925C198.11 14.0954 197.775 14.224 197.492 14.3784V22.8678C197.801 23.0221 198.135 23.1507 198.495 23.2536C198.856 23.3565 199.241 23.408 199.653 23.408Z" fill="#363636"/>
    <path fill-rule="evenodd" clip-rule="evenodd" d="M26.2425 8.58112C28.6121 8.58112 30.5331 6.66017 30.5331 4.29056C30.5331 1.92095 28.6121 0 26.2425 0C23.8729 0 21.952 1.92095 21.952 4.29056C21.952 6.66017 23.8729 8.58112 26.2425 8.58112Z" fill="#1205A3"/>
    <path fill-rule="evenodd" clip-rule="evenodd" d="M26.2423 19.357C28.612 19.357 30.5329 17.4362 30.5329 15.0666C30.5329 12.6971 28.612 10.7762 26.2423 10.7762C23.8727 10.7762 21.9518 12.6971 21.9518 15.0666C21.9518 17.4362 23.8727 19.357 26.2423 19.357Z" fill="#1205A3"/>
    <path fill-rule="evenodd" clip-rule="evenodd" d="M26.2423 30.5327C28.612 30.5327 30.5329 28.6117 30.5329 26.2421C30.5329 23.8725 28.612 21.9515 26.2423 21.9515C23.8727 21.9515 21.9518 23.8725 21.9518 26.2421C21.9518 28.6117 23.8727 30.5327 26.2423 30.5327Z" fill="#1205A3"/>
    <path fill-rule="evenodd" clip-rule="evenodd" d="M15.0672 19.3571C17.4368 19.3571 19.3577 17.4362 19.3577 15.0667C19.3577 12.6971 17.4368 10.7762 15.0672 10.7762C12.6977 10.7762 10.7768 12.6971 10.7768 15.0667C10.7768 17.4362 12.6977 19.3571 15.0672 19.3571Z" fill="#1205A3"/>
    <path fill-rule="evenodd" clip-rule="evenodd" d="M15.067 30.5327C17.4366 30.5327 19.3575 28.6118 19.3575 26.2422C19.3575 23.8725 17.4366 21.9516 15.067 21.9516C12.6975 21.9516 10.7766 23.8725 10.7766 26.2422C10.7766 28.6118 12.6975 30.5327 15.067 30.5327Z" fill="#1205A3"/>
    <path fill-rule="evenodd" clip-rule="evenodd" d="M4.2905 30.5327C6.66011 30.5327 8.58106 28.6117 8.58106 26.2421C8.58106 23.8725 6.66011 21.9515 4.2905 21.9515C1.92089 21.9515 -6.10352e-05 23.8725 -6.10352e-05 26.2421C-6.10352e-05 28.6117 1.92089 30.5327 4.2905 30.5327Z" fill="#1205A3"/>
</svg>
