<svg width="15" height="15" viewBox="0 0 15 15" fill="none" xmlns="http://www.w3.org/2000/svg">
<path d="M1.40625 8.69687H13.5938M12.9062 8.69687C12.9062 5.71124 10.4859 3.29062 7.5 3.29062C4.51406 3.29062 2.09375 5.71124 2.09375 8.69687" stroke="#5546AF" stroke-width="0.3125" stroke-linecap="round" stroke-linejoin="round"/>
<path d="M5.24847 4.60376C4.68991 4.96814 4.22826 5.46281 3.90327 6.04518C3.57828 6.62755 3.39968 7.28018 3.38285 7.94688M7.50004 3.29063V2.58438M7.79379 10.7969C9.41816 10.7772 9.62629 10.7094 12.6297 9.94688C12.8188 9.89907 12.9591 9.99594 13.0003 10.1059C13.0425 10.2184 13.0253 10.4178 12.7688 10.4844C12.2625 10.6156 9.10629 12.0719 8.38754 12.0719C7.66879 12.0719 5.57504 11.9156 4.78754 11.9156C4.00004 11.9156 3.08129 12.4156 3.08129 12.4156C2.45004 11.8281 2.05004 10.8531 1.94379 9.79688H9.74379C10.0657 9.79688 10.1688 10.2469 9.89379 10.3719C9.48597 10.5572 8.79379 10.7969 7.79379 10.7969Z" stroke="#5546AF" stroke-width="0.3125" stroke-linecap="round" stroke-linejoin="round"/>
</svg>
