<svg width="14" height="14" viewBox="0 0 14 14" fill="none" xmlns="http://www.w3.org/2000/svg">
<path d="M7.37006 4.09457H8.18896V9.00802H7.37006V4.09457ZM4.91333 4.09457H5.73224V9.00802H4.91333V4.09457Z" fill="#5546AF"/>
<path d="M6.55133 1.63783C5.57954 1.63783 4.62957 1.926 3.82156 2.4659C3.01354 3.0058 2.38377 3.77317 2.01189 4.67099C1.64 5.56881 1.5427 6.55674 1.73228 7.50985C1.92187 8.46297 2.38983 9.33846 3.07699 10.0256C3.76415 10.7128 4.63964 11.1807 5.59276 11.3703C6.54588 11.5599 7.53381 11.4626 8.43162 11.0907C9.32944 10.7188 10.0968 10.0891 10.6367 9.28106C11.1766 8.47304 11.4648 7.52308 11.4648 6.55129C11.4648 5.24816 10.9471 3.9984 10.0257 3.07695C9.10421 2.1555 7.85445 1.63783 6.55133 1.63783ZM6.55133 0.818924C7.68508 0.818924 8.79337 1.15512 9.73606 1.785C10.6787 2.41488 11.4135 3.31015 11.8473 4.35761C12.2812 5.40506 12.3947 6.55765 12.1735 7.66962C11.9524 8.78158 11.4064 9.80299 10.6047 10.6047C9.80303 11.4064 8.78162 11.9523 7.66965 12.1735C6.55768 12.3947 5.4051 12.2812 4.35765 11.8473C3.31019 11.4134 2.41492 10.6787 1.78504 9.73602C1.15516 8.79333 0.818963 7.68504 0.818963 6.55129C0.818963 5.03097 1.42291 3.57292 2.49793 2.49789C3.57296 1.42287 5.03101 0.818924 6.55133 0.818924Z" fill="#5546AF"/>
</svg>
