<svg width="11" height="10" viewBox="0 0 11 10" fill="none" xmlns="http://www.w3.org/2000/svg">
<path fill-rule="evenodd" clip-rule="evenodd" d="M5.49931 3.05149e-07C5.60864 -0.000118599 5.71517 0.0345145 5.80353 0.0988979C5.89189 0.163281 5.95749 0.254082 5.99087 0.358188L8.25 7.41813L9.13412 4.65575C9.16735 4.55163 9.2328 4.46076 9.32103 4.39625C9.40926 4.33175 9.51571 4.29695 9.625 4.29688H10.4844C10.6211 4.29688 10.7523 4.3512 10.849 4.4479C10.9457 4.5446 11 4.67575 11 4.8125C11 4.94925 10.9457 5.0804 10.849 5.1771C10.7523 5.2738 10.6211 5.32813 10.4844 5.32813H10.0011L8.74088 9.26681C8.70746 9.37073 8.64193 9.46137 8.55372 9.52567C8.4655 9.58996 8.35916 9.62461 8.25 9.62461C8.14084 9.62461 8.0345 9.58996 7.94628 9.52567C7.85807 9.46137 7.79254 9.37073 7.75913 9.26681L5.50344 2.21788L3.92906 7.20225C3.89658 7.30496 3.83275 7.39492 3.74653 7.45949C3.66031 7.52406 3.55602 7.56001 3.44833 7.56229C3.34063 7.56456 3.23492 7.53305 3.14605 7.47218C3.05718 7.4113 2.9896 7.32412 2.95281 7.22287L2.08381 4.83313L2.03569 4.97613C2.0015 5.07876 1.93591 5.16804 1.84818 5.23133C1.76046 5.29463 1.65505 5.32873 1.54688 5.32881H0.515625C0.378873 5.32881 0.247722 5.27449 0.151023 5.17779C0.0543246 5.08109 0 4.94994 0 4.81319C0 4.67644 0.0543246 4.54528 0.151023 4.44859C0.247722 4.35189 0.378873 4.29756 0.515625 4.29756H1.17563L1.573 3.10338C1.60669 3.00166 1.67122 2.91297 1.75764 2.84962C1.84406 2.78627 1.94806 2.75142 2.0552 2.74991C2.16234 2.7484 2.26729 2.7803 2.35546 2.84118C2.44363 2.90206 2.51064 2.9889 2.54719 3.08963L3.40312 5.44431L5.00844 0.360938C5.0413 0.256431 5.1066 0.165108 5.19486 0.100211C5.28312 0.0353126 5.38976 0.000212815 5.49931 3.05149e-07Z" fill="#5546AF"/>
</svg>
