<svg width="6" height="11" viewBox="0 0 6 11" fill="none" xmlns="http://www.w3.org/2000/svg">
<path d="M0.5625 0C0.711684 0 0.854758 0.0592633 0.960247 0.164753C1.06574 0.270242 1.125 0.413316 1.125 0.5625V9.5625C1.125 9.71168 1.06574 9.85476 0.960247 9.96025C0.854758 10.0657 0.711684 10.125 0.5625 10.125C0.413316 10.125 0.270242 10.0657 0.164753 9.96025C0.0592633 9.85476 0 9.71168 0 9.5625V0.5625C0 0.413316 0.0592633 0.270242 0.164753 0.164753C0.270242 0.0592633 0.413316 0 0.5625 0ZM5.0625 0C5.21168 0 5.35476 0.0592633 5.46025 0.164753C5.56574 0.270242 5.625 0.413316 5.625 0.5625V9.5625C5.625 9.71168 5.56574 9.85476 5.46025 9.96025C5.35476 10.0657 5.21168 10.125 5.0625 10.125C4.91332 10.125 4.77024 10.0657 4.66475 9.96025C4.55926 9.85476 4.5 9.71168 4.5 9.5625V0.5625C4.5 0.413316 4.55926 0.270242 4.66475 0.164753C4.77024 0.0592633 4.91332 0 5.0625 0Z" fill="#5546AF"/>
</svg>
