<svg width="16" height="16" viewBox="0 0 16 16" fill="none" xmlns="http://www.w3.org/2000/svg">
<path d="M12.6667 4.66668C12.6667 4.31305 12.5262 3.97392 12.2762 3.72387C12.0261 3.47382 11.687 3.33334 11.3333 3.33334H9.33334V4.66668H11.3333V6.43334L9.00001 9.33334H6.66668V6.00001H4.00001C2.52668 6.00001 1.33334 7.19334 1.33334 8.66668V10.6667H2.66668C2.66668 11.7733 3.56001 12.6667 4.66668 12.6667C5.77334 12.6667 6.66668 11.7733 6.66668 10.6667H9.66668L12.6667 6.90001V4.66668ZM4.66668 11.3333C4.30001 11.3333 4.00001 11.0333 4.00001 10.6667H5.33334C5.33334 11.0333 5.03334 11.3333 4.66668 11.3333ZM5.33334 9.33334H2.66668V8.66668C2.66668 7.93334 3.26668 7.33334 4.00001 7.33334H5.33334V9.33334ZM12.6667 8.66668C11.56 8.66668 10.6667 9.56001 10.6667 10.6667C10.6667 11.7733 11.56 12.6667 12.6667 12.6667C13.7733 12.6667 14.6667 11.7733 14.6667 10.6667C14.6667 9.56001 13.7733 8.66668 12.6667 8.66668ZM12.6667 11.3333C12.3 11.3333 12 11.0333 12 10.6667C12 10.3 12.3 10 12.6667 10C13.0333 10 13.3333 10.3 13.3333 10.6667C13.3333 11.0333 13.0333 11.3333 12.6667 11.3333ZM6.66668 5.33334H3.33334V4.00001H6.66668V5.33334Z" fill="#2a2a2a"/>
</svg>
