<svg width="22" height="22" viewBox="0 0 22 22" fill="none" xmlns="http://www.w3.org/2000/svg">
<mask id="mask0_105_1701" style="mask-type:luminance" maskUnits="userSpaceOnUse" x="0" y="0" width="22" height="13">
<path d="M0 0.515625H22V12.6328H0V0.515625Z" fill="white"/>
</mask>
<g mask="url(#mask0_105_1701)">
<g clip-path="url(#clip0_105_1701)">
<path d="M11.0032 16.2512C12.5338 16.2512 13.7747 15.0142 13.7747 13.4883C13.7747 11.9624 12.5338 10.7254 11.0032 10.7254C9.47253 10.7254 8.23169 11.9624 8.23169 13.4883C8.23169 15.0142 9.47253 16.2512 11.0032 16.2512Z" fill="url(#paint0_linear_105_1701)" stroke="#FF922B" stroke-width="0.257812" stroke-miterlimit="10"/>
<path d="M11.0037 9.20004V7.56723M11.0037 19.4094V17.7766M14.0459 10.4547L15.2061 9.30317M6.80139 17.6778L7.96155 16.5176M7.96155 10.459L6.80139 9.29887M15.2061 17.6778L14.0459 16.5176M6.69827 13.4883H5.06116M16.9463 13.4883H15.3049" stroke="#FFA94D" stroke-width="0.790625" stroke-miterlimit="10" stroke-linecap="round"/>
</g>
</g>
<path d="M5.5 13.75H16.5" stroke="#374151" stroke-width="0.773437" stroke-linecap="round" stroke-linejoin="round"/>
<path d="M7.96221 18.8375H7.38213V17.4625H6.83643V17.0758H6.93096C7.08851 17.0758 7.21455 17.0414 7.30908 16.9726C7.39502 16.9082 7.45088 16.8008 7.48096 16.659L7.48525 16.6375H7.96221V18.8375ZM10.0333 18.7043C9.86143 18.8303 9.63226 18.8933 9.3458 18.8933C9.05934 18.8933 8.83018 18.8303 8.6583 18.7043C8.57616 18.6462 8.50964 18.5688 8.46466 18.4788C8.41968 18.3889 8.39763 18.2892 8.40049 18.1887C8.39701 18.0639 8.43815 17.942 8.5165 17.8449C8.5986 17.7484 8.71045 17.6819 8.83447 17.6558V17.6473C8.73735 17.616 8.65294 17.5542 8.59385 17.4711C8.53602 17.3864 8.50598 17.2857 8.50791 17.1832C8.50496 17.0966 8.52389 17.0106 8.56295 16.9333C8.602 16.8559 8.65992 16.7897 8.73135 16.7406C8.87458 16.6346 9.07939 16.5816 9.3458 16.5816C9.61221 16.5816 9.81989 16.6346 9.96885 16.7406C10.0403 16.7897 10.0982 16.8559 10.1372 16.9333C10.1763 17.0106 10.1952 17.0966 10.1923 17.1832C10.1951 17.2872 10.165 17.3895 10.1063 17.4754C10.0473 17.5576 9.96267 17.618 9.86572 17.6473V17.6601C9.98795 17.6876 10.098 17.754 10.1794 17.8492C10.2565 17.9467 10.2962 18.0687 10.2911 18.193C10.2933 18.2928 10.2709 18.3916 10.2259 18.4807C10.181 18.5699 10.1148 18.6467 10.0333 18.7043ZM9.3458 18.4766C9.44822 18.4825 9.54966 18.4538 9.63369 18.3949C9.66642 18.3667 9.69268 18.3317 9.71067 18.2924C9.72867 18.2531 9.73799 18.2104 9.73799 18.1672C9.73799 18.124 9.72867 18.0812 9.71067 18.0419C9.69268 18.0026 9.66642 17.9677 9.63369 17.9394C9.54966 17.8806 9.44822 17.8518 9.3458 17.8578C9.2401 17.8521 9.13559 17.8824 9.04932 17.9437C9.01731 17.972 8.99168 18.0067 8.97412 18.0456C8.95656 18.0845 8.94748 18.1267 8.94748 18.1693C8.94748 18.212 8.95656 18.2542 8.97412 18.2931C8.99168 18.332 9.01731 18.3667 9.04932 18.3949C9.13746 18.4553 9.24349 18.4841 9.3501 18.4766H9.3458ZM9.3458 17.5055C9.43614 17.5105 9.52552 17.4848 9.59932 17.4324C9.62829 17.4086 9.65119 17.3783 9.66613 17.3439C9.68107 17.3096 9.68763 17.2722 9.68525 17.2348C9.6873 17.1986 9.68055 17.1626 9.66559 17.1296C9.65062 17.0967 9.62787 17.0679 9.59932 17.0457C9.5243 16.9963 9.43547 16.9722 9.3458 16.9769C9.11663 16.9769 9.00205 17.0629 9.00205 17.2348C8.99968 17.2722 9.00623 17.3096 9.02118 17.3439C9.03612 17.3783 9.05902 17.4086 9.08799 17.4324C9.16311 17.4854 9.25405 17.5112 9.3458 17.5055ZM11.4427 18.1887H10.5575V17.7633H11.4427V18.1887ZM13.531 18.8375H11.7864C11.7802 18.6637 11.825 18.4919 11.9153 18.3433C11.9984 18.2173 12.1517 18.0769 12.3751 17.9223L12.7188 17.6816C12.7903 17.636 12.8529 17.5778 12.9036 17.5098C12.9392 17.4548 12.9571 17.3904 12.9552 17.325C12.9572 17.2861 12.951 17.2472 12.937 17.2109C12.9229 17.1747 12.9013 17.1418 12.8735 17.1144C12.8138 17.0638 12.737 17.0377 12.6587 17.0414C12.4467 17.0414 12.3407 17.1631 12.3407 17.4066V17.4539H11.8165V17.3851C11.8165 17.1331 11.891 16.9354 12.0399 16.7922C12.1889 16.6489 12.3994 16.5773 12.6716 16.5773C12.9294 16.5773 13.1356 16.6404 13.2903 16.7664C13.445 16.8924 13.5224 17.0672 13.5224 17.2906C13.5245 17.4278 13.4856 17.5625 13.4106 17.6773C13.317 17.8082 13.197 17.918 13.0583 17.9996L12.6802 18.2402C12.6071 18.2832 12.5685 18.3262 12.5599 18.3605H13.5353L13.531 18.8375ZM14.9704 18.8375H14.3946V17.4625H13.8489V17.0758H13.9392C14.0996 17.0758 14.2256 17.0414 14.3173 16.9726C14.4032 16.9082 14.4591 16.8008 14.4892 16.659L14.4978 16.6375H14.9704V18.8375Z" fill="#374251"/>
<defs>
<linearGradient id="paint0_linear_105_1701" x1="9.61958" y1="11.095" x2="12.3868" y2="15.886" gradientUnits="userSpaceOnUse">
<stop stop-color="#FFA94D"/>
<stop offset="0.5" stop-color="#FFA94D"/>
<stop offset="1" stop-color="#FD7E14"/>
</linearGradient>
<clipPath id="clip0_105_1701">
<rect width="12.6758" height="12.6328" fill="white" transform="translate(4.66528 7.17191)"/>
</clipPath>
</defs>
</svg>
