<svg width="17" height="17" viewBox="0 0 17 17" fill="none" xmlns="http://www.w3.org/2000/svg">
<path d="M15.0086 11.5541C15.0049 11.5476 14.9998 11.5423 14.9957 11.5362L14.996 11.536L10.4222 3.61421L10.4196 3.61557C10.3819 3.55534 10.3268 3.50788 10.2617 3.4794L10.2682 3.47566L8.91054 2.69162L10.4186 5.30367L13.8489 11.245L13.8485 11.2452C13.8526 11.2513 13.8577 11.2566 13.8615 11.263C13.9085 11.3446 13.9213 11.4416 13.8969 11.5326C13.8725 11.6236 13.813 11.7012 13.7314 11.7484L13.7338 11.7526L8.65741 14.6834L8.87722 15.064C8.88164 15.0734 8.8847 15.0831 8.88997 15.0923C8.93581 15.1713 9.01042 15.2297 9.09823 15.255C9.18604 15.2804 9.28026 15.2709 9.36121 15.2284L9.36206 15.2298L14.8811 12.0435L14.8787 12.0392C14.9603 11.9921 15.0197 11.9145 15.0441 11.8235C15.0684 11.7326 15.0557 11.6356 15.0086 11.5541Z" fill="#5546AF"/>
<path d="M12.5597 11.4143C12.6412 11.3672 12.7008 11.2896 12.7251 11.1986C12.7495 11.1076 12.7368 11.0106 12.6897 10.929C12.686 10.9225 12.6809 10.9172 12.6768 10.9111L12.6771 10.911L8.10329 2.98913L8.10074 2.99049C8.06298 2.93025 8.00794 2.8828 7.94281 2.85432L7.94927 2.85058L6.07757 1.76989V1.77737C6.03019 1.75036 5.97722 1.73467 5.92279 1.73152C5.86835 1.72836 5.81392 1.73783 5.76375 1.75918L5.76171 1.75561L5.72669 1.77584C5.72601 1.77635 5.72516 1.77635 5.72448 1.77686C5.7238 1.77737 5.72329 1.77788 5.72244 1.77822L2.12133 3.85732C2.06857 3.88784 2.0246 3.9315 1.99371 3.98405C1.96282 4.0366 1.94605 4.09625 1.94504 4.1572L1.94385 4.15652V6.3179L1.94742 6.31586C1.93943 6.38845 1.95252 6.4641 1.99179 6.53227C1.99417 6.53635 1.99723 6.53941 1.99978 6.54332L6.55833 14.4391C6.56275 14.4485 6.56581 14.4582 6.57108 14.4674C6.61691 14.5464 6.69153 14.6047 6.77934 14.6301C6.86715 14.6555 6.96137 14.646 7.04232 14.6035L7.04317 14.6049L12.5622 11.4186L12.5597 11.4143ZM5.02272 4.67876C4.91017 4.74374 4.78088 4.77388 4.6512 4.76538C4.52152 4.75688 4.39728 4.71012 4.29418 4.631C4.19108 4.55188 4.11375 4.44397 4.07199 4.3209C4.03022 4.19784 4.02589 4.06515 4.05954 3.93963C4.09318 3.8141 4.1633 3.70137 4.26101 3.61569C4.35873 3.53002 4.47966 3.47524 4.60851 3.4583C4.73736 3.44135 4.86834 3.463 4.98489 3.5205C5.10143 3.578 5.19831 3.66877 5.26327 3.78133C5.30646 3.85603 5.3345 3.93852 5.34578 4.02407C5.35707 4.10962 5.35137 4.19656 5.32903 4.27991C5.30669 4.36326 5.26814 4.44138 5.21558 4.50982C5.16302 4.57826 5.09748 4.63567 5.02272 4.67876Z" fill="#5546AF"/>
</svg>
