<svg width="27" height="27" viewBox="0 0 27 27" fill="none" xmlns="http://www.w3.org/2000/svg">
<path d="M16.099 21.8021C16.099 22.4693 15.8339 23.1091 15.3621 23.5809C14.8904 24.0527 14.2505 24.3177 13.5833 24.3177C12.9161 24.3177 12.2763 24.0527 11.8045 23.5809C11.3327 23.1091 11.0677 22.4693 11.0677 21.8021C11.0677 21.1349 11.3327 20.495 11.8045 20.0233C12.2763 19.5515 12.9161 19.2865 13.5833 19.2865C14.2505 19.2865 14.8904 19.5515 15.3621 20.0233C15.8339 20.495 16.099 21.1349 16.099 21.8021ZM16.099 13.4167C16.099 14.0839 15.8339 14.7237 15.3621 15.1955C14.8904 15.6673 14.2505 15.9323 13.5833 15.9323C12.9161 15.9323 12.2763 15.6673 11.8045 15.1955C11.3327 14.7237 11.0677 14.0839 11.0677 13.4167C11.0677 12.7495 11.3327 12.1096 11.8045 11.6379C12.2763 11.1661 12.9161 10.901 13.5833 10.901C14.2505 10.901 14.8904 11.1661 15.3621 11.6379C15.8339 12.1096 16.099 12.7495 16.099 13.4167ZM16.099 5.03125C16.099 5.69844 15.8339 6.33829 15.3621 6.81007C14.8904 7.28184 14.2505 7.54688 13.5833 7.54688C12.9161 7.54688 12.2763 7.28184 11.8045 6.81007C11.3327 6.33829 11.0677 5.69844 11.0677 5.03125C11.0677 4.36406 11.3327 3.72421 11.8045 3.25243C12.2763 2.78066 12.9161 2.51563 13.5833 2.51562C14.2505 2.51563 14.8904 2.78066 15.3621 3.25243C15.8339 3.72421 16.099 4.36406 16.099 5.03125Z" fill="#5546AF"/>
</svg>
