<svg width="25" height="25" viewBox="0 0 19 19" fill="none" xmlns="http://www.w3.org/2000/svg">
<path d="M9.5 17.8125C4.91625 17.8125 1.1875 14.0837 1.1875 9.5C1.1875 4.91625 4.91625 1.1875 9.5 1.1875C14.0837 1.1875 17.8125 4.91625 17.8125 9.5C17.8125 14.0837 14.0837 17.8125 9.5 17.8125ZM9.5 2.375C5.56938 2.375 2.375 5.56938 2.375 9.5C2.375 13.4306 5.56938 16.625 9.5 16.625C13.4306 16.625 16.625 13.4306 16.625 9.5C16.625 5.56938 13.4306 2.375 9.5 2.375Z" fill="#3E3D3D"/>
<path d="M11.875 12.4688C11.7682 12.4688 11.6613 12.445 11.5663 12.3856L8.59754 10.6044C8.50961 10.5515 8.43703 10.4766 8.38704 10.387C8.33704 10.2974 8.31135 10.1963 8.31254 10.0938V5.34375C8.31254 5.01125 8.57379 4.75 8.90629 4.75C9.23879 4.75 9.50004 5.01125 9.50004 5.34375V9.76125L12.1838 11.3644C12.2943 11.4321 12.3798 11.5341 12.4272 11.6548C12.4745 11.7754 12.4813 11.9083 12.4464 12.0331C12.4115 12.158 12.3368 12.2681 12.2337 12.3467C12.1306 12.4253 12.0047 12.4681 11.875 12.4688Z" fill="#3E3D3D"/>
</svg>
