<svg width="37" height="37" viewBox="0 0 37 37" fill="none" xmlns="http://www.w3.org/2000/svg">
<path d="M29.2918 18.5C29.2918 18.9089 29.1293 19.301 28.8402 19.5901C28.5511 19.8792 28.159 20.0417 27.7501 20.0417C27.3412 20.0417 26.9491 19.8792 26.66 19.5901C26.3709 19.301 26.2084 18.9089 26.2084 18.5C26.2084 18.0911 26.3709 17.699 26.66 17.4099C26.9491 17.1208 27.3412 16.9583 27.7501 16.9583C28.159 16.9583 28.5511 17.1208 28.8402 17.4099C29.1293 17.699 29.2918 18.0911 29.2918 18.5Z" fill="#3D3D3D"/>
<path fill-rule="evenodd" clip-rule="evenodd" d="M15.3304 5.01042H20.1281C22.9617 5.01042 25.2064 5.01042 26.9623 5.2463C28.7691 5.48988 30.2322 6.00171 31.3869 7.15488C32.8114 8.58092 33.2662 10.4895 33.4311 12.967C34.3207 13.357 34.9929 14.1849 35.0653 15.2332C35.073 15.3273 35.073 15.4275 35.073 15.52V21.48C35.073 21.5725 35.073 21.6728 35.0669 21.7653C34.9929 22.8136 34.3207 23.643 33.4311 24.0346C33.2662 26.5105 32.8114 28.4191 31.3869 29.8451C30.2322 30.9983 28.7691 31.5101 26.9623 31.7537C25.2048 31.9896 22.9617 31.9896 20.1281 31.9896H15.3304C12.4969 31.9896 10.2522 31.9896 8.49623 31.7537C6.68939 31.5101 5.22635 30.9983 4.07164 29.8451C2.91848 28.6904 2.40664 27.2274 2.16306 25.4205C1.92719 23.663 1.92719 21.4199 1.92719 18.5863V18.4137C1.92719 15.5801 1.92719 13.3354 2.16306 11.5795C2.40664 9.77263 2.91848 8.30959 4.07164 7.15488C5.22635 6.00171 6.68939 5.48988 8.49623 5.2463C10.2537 5.01042 12.4969 5.01042 15.3304 5.01042ZM31.0924 24.2813H28.1047C24.7978 24.2813 21.9673 21.7714 21.9673 18.5C21.9673 15.2286 24.7978 12.7188 28.1031 12.7188H31.0909C30.9151 10.6514 30.5189 9.55834 29.7496 8.79059C29.0975 8.13846 28.2034 7.74688 26.6524 7.53875C25.0691 7.326 22.9802 7.32292 20.0402 7.32292H15.4152C12.4753 7.32292 10.3879 7.326 8.80148 7.53875C7.2521 7.74688 6.35793 8.13846 5.70581 8.79059C5.05368 9.44271 4.6621 10.3369 4.45398 11.8878C4.24123 13.4726 4.23814 15.56 4.23814 18.5C4.23814 21.44 4.24123 23.5289 4.45398 25.1138C4.6621 26.6631 5.05368 27.5573 5.70581 28.2094C6.35793 28.8615 7.2521 29.2531 8.80302 29.4613C10.3879 29.674 12.4753 29.6771 15.4152 29.6771H20.0402C22.9802 29.6771 25.0691 29.674 26.654 29.4613C28.2034 29.2531 29.0975 28.8615 29.7496 28.2094C30.5189 27.4417 30.9167 26.3502 31.0924 24.2813ZM8.09385 12.3333C8.09385 12.0267 8.21567 11.7326 8.43251 11.5157C8.64935 11.2989 8.94345 11.1771 9.2501 11.1771H15.4168C15.7234 11.1771 16.0175 11.2989 16.2344 11.5157C16.4512 11.7326 16.573 12.0267 16.573 12.3333C16.573 12.64 16.4512 12.9341 16.2344 13.1509C16.0175 13.3678 15.7234 13.4896 15.4168 13.4896H9.2501C8.94345 13.4896 8.64935 13.3678 8.43251 13.1509C8.21567 12.9341 8.09385 12.64 8.09385 12.3333ZM32.2579 15.0313H28.1047C25.9093 15.0313 24.2798 16.6639 24.2798 18.5C24.2798 20.3361 25.9094 21.9688 28.1031 21.9688H32.2934C32.611 21.9487 32.7482 21.7344 32.759 21.6049V15.3951C32.7482 15.2656 32.611 15.0513 32.2934 15.0328L32.2579 15.0313Z" fill="#3D3D3D"/>
</svg>
