<svg width="38" height="38" viewBox="0 0 38 38" fill="none" xmlns="http://www.w3.org/2000/svg">
<path d="M12.6923 11.7868C12.8642 11.6778 13.0604 11.613 13.2635 11.5982C13.4665 11.5835 13.6701 11.6192 13.856 11.7022C14.0418 11.7853 14.2043 11.9131 14.3288 12.0742C14.4532 12.2352 14.5359 12.4247 14.5694 12.6255L14.9147 14.6876C14.9541 14.9223 14.9248 15.1634 14.8303 15.3818C14.7357 15.6002 14.58 15.7866 14.3819 15.9185L13.1461 16.7423C12.8444 15.7196 12.6915 14.6587 12.6923 13.5924V11.7868ZM23.7923 24.6924C22.7259 24.6932 21.6651 24.5403 20.6423 24.2385L21.4662 23.0052C21.5978 22.8067 21.784 22.6505 22.0024 22.5555C22.2209 22.4605 22.4621 22.4308 22.6971 22.4699L24.7592 22.8153C24.96 22.8488 25.1494 22.9314 25.3105 23.0559C25.4716 23.1804 25.5994 23.3428 25.6824 23.5287C25.7655 23.7146 25.8012 23.9181 25.7865 24.1212C25.7717 24.3242 25.7069 24.5205 25.5979 24.6924H23.7923Z" fill="#393939"/>
<path fill-rule="evenodd" clip-rule="evenodd" d="M0.358906 18.5255C0.35909 14.391 1.74426 10.3757 4.29334 7.12043C6.84242 3.8652 10.4085 1.55768 14.4224 0.566166C18.4362 -0.425349 22.6666 -0.0437098 26.4382 1.65017C30.2098 3.34405 33.3053 6.25254 35.2306 9.91143C37.156 13.5703 37.8001 17.7687 37.0604 21.8365C36.3206 25.9043 34.2395 29.6071 31.1492 32.3538C28.0589 35.1005 24.1376 36.7329 20.0111 36.9904C15.8846 37.2479 11.7907 36.1157 8.38297 33.7744L2.14231 36.8948C1.91105 37.0093 1.64967 37.0485 1.39499 37.0067C1.14031 36.9649 0.905168 36.8442 0.722673 36.6617C0.540178 36.4792 0.419531 36.2441 0.377726 35.9894C0.33592 35.7347 0.375062 35.4734 0.489639 35.2421L3.60997 29.0014C1.48752 25.9207 0.35353 22.2666 0.358906 18.5255ZM10.7929 10.0895L11.301 9.74909C11.8151 9.40671 12.4066 9.19845 13.0218 9.14329C13.6369 9.08814 14.2561 9.18784 14.8228 9.43332C15.3895 9.6788 15.8858 10.0622 16.2663 10.5487C16.6469 11.0351 16.8996 11.6091 17.0015 12.2182L17.3468 14.2828C17.4641 14.9862 17.3756 15.7084 17.092 16.3626C16.8084 17.0168 16.3419 17.5752 15.7484 17.9705L14.1254 19.0509C15.1201 20.8094 16.5737 22.2647 18.331 23.2615L19.4164 21.6384C19.8115 21.0454 20.3694 20.5791 21.0232 20.2956C21.6769 20.012 22.3986 19.9233 23.1016 20.04L25.1662 20.3854C25.7753 20.4872 26.3493 20.74 26.8357 21.1205C27.3222 21.5011 27.7056 21.9973 27.9511 22.5641C28.1966 23.1308 28.2963 23.75 28.2411 24.3651C28.186 24.9803 27.9777 25.5718 27.6353 26.0858L27.2949 26.5964C27.1832 26.7697 27.0298 26.9121 26.8488 27.0108C26.6679 27.1095 26.465 27.1612 26.2589 27.1613H23.7922C22.0104 27.1613 20.2461 26.8103 18.5999 26.1284C16.9538 25.4464 15.4581 24.4469 14.1983 23.1868C12.9385 21.9268 11.9392 20.4309 11.2576 18.7847C10.5759 17.1384 10.2252 15.374 10.2256 13.5922V11.1255C10.2259 10.9191 10.278 10.7162 10.3772 10.5352C10.4763 10.3542 10.6192 10.2009 10.7929 10.0895Z" fill="#393939"/>
</svg>
