<svg width="28" height="28" viewBox="0 0 28 28" fill="none" xmlns="http://www.w3.org/2000/svg">
<path d="M0.592862 13.8324C0.592211 16.185 1.20691 18.4821 2.37575 20.5067L0.481079 27.4245L7.56052 25.5682C9.5186 26.6342 11.7125 27.1927 13.9419 27.1929H13.9478C21.3075 27.1929 27.2986 21.204 27.3017 13.843C27.3031 10.276 25.9153 6.92185 23.3938 4.39838C20.8727 1.87512 17.5197 0.484782 13.9472 0.483154C6.5866 0.483154 0.596009 6.47168 0.592971 13.8324" fill="url(#paint0_linear_105_1564)"/>
<path d="M0.116124 13.8281C0.115364 16.2653 0.752093 18.6445 1.9626 20.7417L0 27.9074L7.33329 25.9846C9.35384 27.0863 11.6288 27.6671 13.9437 27.668H13.9496C21.5735 27.668 27.7797 21.4637 27.7829 13.8392C27.7842 10.144 26.3465 6.66932 23.7349 4.05544C21.123 1.44189 17.6501 0.00151938 13.9496 0C6.32453 0 0.119163 6.20341 0.116124 13.8281ZM4.48336 20.3805L4.20955 19.9459C3.05851 18.1157 2.45098 16.0007 2.45184 13.829C2.45423 7.49152 7.61188 2.3355 13.954 2.3355C17.0253 2.33681 19.9117 3.53408 22.0827 5.70636C24.2535 7.87885 25.4481 10.7668 25.4473 13.8383C25.4445 20.1757 20.2868 25.3324 13.9496 25.3324H13.9451C11.8817 25.3313 9.85795 24.7772 8.09309 23.73L7.67309 23.4809L3.32136 24.6219L4.48336 20.3805Z" fill="url(#paint1_linear_105_1564)"/>
<path d="M10.4922 8.0471C10.2332 7.47158 9.9607 7.45997 9.71445 7.44988C9.51281 7.44119 9.2823 7.44184 9.052 7.44184C8.82149 7.44184 8.44697 7.52856 8.13039 7.87422C7.81349 8.2202 6.92053 9.05629 6.92053 10.7568C6.92053 12.4574 8.15915 14.1009 8.33182 14.3317C8.5047 14.5621 10.723 18.1635 14.2362 19.5489C17.1561 20.7003 17.7502 20.4713 18.3839 20.4135C19.0177 20.356 20.429 19.5777 20.7169 18.7706C21.0051 17.9635 21.0051 17.2718 20.9187 17.1272C20.8323 16.9832 20.6018 16.8967 20.2561 16.724C19.9104 16.5511 18.211 15.7149 17.8943 15.5995C17.5774 15.4842 17.347 15.4267 17.1164 15.7728C16.8859 16.1184 16.224 16.8967 16.0223 17.1272C15.8207 17.3583 15.619 17.3871 15.2734 17.2142C14.9276 17.0407 13.8144 16.6762 12.4937 15.4988C11.4662 14.5826 10.7725 13.4512 10.5708 13.1051C10.3692 12.7596 10.5492 12.5722 10.7226 12.4C10.8779 12.2451 11.0683 11.9964 11.2413 11.7947C11.4137 11.5928 11.4712 11.4488 11.5864 11.2183C11.7018 10.9875 11.6441 10.7857 11.5578 10.6128C11.4712 10.4399 10.7995 8.7305 10.4922 8.0471Z" fill="white"/>
<defs>
<linearGradient id="paint0_linear_105_1564" x1="1341.51" y1="2694.62" x2="1341.51" y2="0.483154" gradientUnits="userSpaceOnUse">
<stop stop-color="#1FAF38"/>
<stop offset="1" stop-color="#60D669"/>
</linearGradient>
<linearGradient id="paint1_linear_105_1564" x1="1389.15" y1="2790.74" x2="1389.15" y2="0" gradientUnits="userSpaceOnUse">
<stop stop-color="#F9F9F9"/>
<stop offset="1" stop-color="white"/>
</linearGradient>
</defs>
</svg>
